<svg xmlns="http://www.w3.org/2000/svg" viewBox="0 0 256 256">
  <rect width="256" height="256" fill="#1a3a5c"/>
  <path d="M128 40 C 75 40 40 75 40 128 C 40 181 75 216 128 216 C 155 216 178 205 194 188 L 194 140 L 150 140 L 150 116 L 220 116 L 220 200 C 197 220 164 230 128 230 C 67 230 26 189 26 128 C 26 67 67 26 128 26 C 160 26 188 38 208 58 L 190 76 C 175 61 153 50 128 50 C 81 50 50 81 50 128 C 50 175 81 206 128 206 C 148 206 166 199 180 188 L 180 150 L 164 150 L 164 130 L 194 130 L 194 178 C 182 191 156 206 128 206 Z" fill="#ffffff"/>
  <circle cx="128" cy="128" r="50" fill="none" stroke="#dc143c" stroke-width="3"/>
  <line x1="128" y1="78" x2="128" y2="178" stroke="#dc143c" stroke-width="2"/>
  <ellipse cx="128" cy="128" rx="50" ry="25" fill="none" stroke="#dc143c" stroke-width="2"/>
  <ellipse cx="128" cy="128" rx="25" ry="50" fill="none" stroke="#dc143c" stroke-width="2"/>
</svg>